<svg width="27" height="22" viewBox="0 0 27 22" fill="none" xmlns="http://www.w3.org/2000/svg">
<path fillRule="evenodd" clipRule="evenodd" d="M3.64552 0L1.93701 1.58584L23.9225 22L25.631 20.4136L3.64552 0Z" fill="black" fill-opacity="0.6"/>
<path d="M5.54656 4.93722L7.15466 6.43035C5.3943 7.82207 3.99252 9.55441 3.08669 11.0701L3.08393 11.0752C5.60669 14.9917 9.60957 18.693 14.6617 18.1316C16.0254 17.98 17.2976 17.5471 18.4599 16.9279L20.0879 18.4389C17.8222 19.7891 15.225 20.5042 12.4109 20.1508C7.33671 19.5136 3.18764 15.6494 0.572205 11.1111C1.80021 8.8168 3.48003 6.62193 5.54656 4.93722ZM9.20409 2.72442C10.623 2.13741 12.1583 1.79217 13.7978 1.76758C13.8888 1.76707 14.9695 1.81471 15.4594 1.88949C15.7667 1.93662 16.0729 1.99552 16.3746 2.06877C21.1879 3.23305 24.7539 7.01122 26.9958 10.9036C26.0552 12.6672 24.8234 14.3883 23.3543 15.863L21.7947 14.4149C22.8798 13.329 23.7846 12.1201 24.4813 10.9477C24.4813 10.9477 23.7807 9.90169 23.2495 9.24502C22.908 8.82295 22.5489 8.41317 22.1715 8.01825C21.8736 7.70682 20.7168 6.64907 20.4415 6.42882C18.5945 4.95413 16.4259 3.79701 13.8248 3.81648C12.8175 3.83133 11.8488 4.01573 10.9291 4.32614L9.20409 2.72442Z" fill="black" fill-opacity="0.6"/>
<path fillRule="evenodd" clipRule="evenodd" d="M9.92409 9.00241L11.1655 10.1546L15.9438 14.5913C15.305 14.9242 14.568 15.1138 13.7841 15.1138C11.343 15.1138 9.36139 13.2738 9.36139 11.0073C9.36139 10.2794 9.56606 9.59557 9.92409 9.00241ZM13.7024 6.90178C13.7295 6.90127 13.757 6.90076 13.7841 6.90076C16.2252 6.90076 18.2068 8.74118 18.2068 11.0073C18.2068 11.0329 18.2068 11.058 18.2062 11.0831L13.7024 6.90178Z" fill="black" fill-opacity="0.6"/>
</svg>
