<svg width="26" height="21" viewBox="0 0 26 21" fill="none" xmlns="http://www.w3.org/2000/svg">
<path fillRule="evenodd" clipRule="evenodd" d="M13.6411 0.00909928C19.1601 0.0923167 23.688 5.36663 25.9558 9.90476C25.9558 9.90476 25.1578 11.6407 24.4093 12.7519C24.0471 13.2895 23.666 13.8132 23.2657 14.3197C22.9802 14.6803 22.6853 15.0315 22.3795 15.3727C19.646 18.424 15.7205 20.7003 11.5753 19.8165C6.97015 18.8345 3.21373 14.6404 0.955811 10.1294C0.955811 10.1294 1.75751 8.39186 2.51016 7.2823C2.84733 6.78466 3.20121 6.30033 3.57179 5.83043C3.85572 5.47038 4.1501 5.1192 4.45439 4.77801C6.86942 2.07289 9.96819 -0.00976332 13.6411 0.00909928ZM13.6218 2.22823C10.5475 2.21602 7.99107 4.0407 5.96855 6.30588C5.69348 6.61378 5.42834 6.93112 5.17154 7.25622C4.83384 7.68452 4.51128 8.12668 4.20386 8.57993C3.89643 9.03264 3.58118 9.60406 3.33117 10.0895C5.32186 13.6451 8.30998 16.8567 11.986 17.6406C15.4115 18.3713 18.6084 16.3641 20.8674 13.8426C21.1435 13.5347 21.4102 13.2168 21.6681 12.8911C22.0334 12.429 22.381 11.9513 22.7114 11.4604C23.0173 11.006 23.332 10.4335 23.5815 9.94747C21.5156 6.27204 17.9811 2.30035 13.6218 2.22823Z" fill="black" fill-opacity="0.6"/>
<path fillRule="evenodd" clipRule="evenodd" d="M13.4558 5.56934C15.7654 5.56934 17.6407 7.56267 17.6407 10.017C17.6407 12.4719 15.7654 14.4647 13.4558 14.4647C11.1467 14.4647 9.27136 12.4719 9.27136 10.017C9.27136 7.56267 11.1467 5.56934 13.4558 5.56934Z" fill="black" fill-opacity="0.6"/>
</svg>
